<?xml version="1.0" encoding="UTF-8" standalone="no"?>
<!-- Generator: Fusion 360, Shaper Origin Export Add-In, Version 1.5.0  -->

<svg
   xmlns:shaper="http://www.shapertools.com/namespaces/shaper"
   xmlns:dc="http://purl.org/dc/elements/1.1/"
   xmlns:cc="http://creativecommons.org/ns#"
   xmlns:rdf="http://www.w3.org/1999/02/22-rdf-syntax-ns#"
   xmlns:svg="http://www.w3.org/2000/svg"
   xmlns="http://www.w3.org/2000/svg"
   xmlns:sodipodi="http://sodipodi.sourceforge.net/DTD/sodipodi-0.dtd"
   xmlns:inkscape="http://www.inkscape.org/namespaces/inkscape"
   enable-background="new 0 0 15.5799997 5.1799998"
   height="5.1799998cm"
   shaper:fusionaddin="version:1.5.0"
   version="1.1"
   viewBox="0 0 15.5799997 5.1799998"
   width="15.5799997cm"
   x="0cm"
   xml:space="preserve"
   y="0cm"
   id="svg16"
   sodipodi:docname="Körper2.svg"
   inkscape:version="0.92.2 5c3e80d, 2017-08-06"><metadata
     id="metadata22"><rdf:RDF><cc:Work
         rdf:about=""><dc:format>image/svg+xml</dc:format><dc:type
           rdf:resource="http://purl.org/dc/dcmitype/StillImage" /></cc:Work></rdf:RDF></metadata><defs
     id="defs20" /><sodipodi:namedview
     pagecolor="#ffffff"
     bordercolor="#666666"
     borderopacity="1"
     objecttolerance="10"
     gridtolerance="10"
     guidetolerance="10"
     inkscape:pageopacity="0"
     inkscape:pageshadow="2"
     inkscape:window-width="1440"
     inkscape:window-height="810"
     id="namedview18"
     showgrid="false"
     inkscape:zoom="0.69966838"
     inkscape:cx="294.4252"
     inkscape:cy="97.889761"
     inkscape:window-x="0"
     inkscape:window-y="1"
     inkscape:window-maximized="1"
     inkscape:current-layer="svg16" /><path
     d="M13.0799997,5.1799998 L2.5,5.1799998 0,2.6799998 0,0 15.5799997,0 15.5799997,2.6799998 13.0799997,5.1799998z"
     fill="rgb(0,0,0)"
     shaper:cutDepth="0.004"
     shaper:pathType="exterior"
     transform="matrix(1,0,0,-1,-0,5.1799998)"
     vector-effect="non-scaling-stroke"
     id="path2"
     style="stroke:#ff0000;stroke-opacity:1" /><path
     d="M14.2899999,1.4399999 a0.2,0.2 0 1,1 0.4,0 a0.2,0.2 0 1,1 -0.4,0z"
     fill="rgb(255,255,255)"
     shaper:cutDepth="0.004"
     shaper:pathType="interior"
     stroke="rgb(0,0,0)"
     transform="matrix(1,0,0,-1,-0,5.1799998)"
     vector-effect="non-scaling-stroke"
     id="path4"
     style="stroke:#ff0000;stroke-opacity:1" /><path
     d="M0.7899999,1.4399999 a0.2,0.2 0 1,1 0.4,0 a0.2,0.2 0 1,1 -0.4,0z"
     fill="rgb(255,255,255)"
     shaper:cutDepth="0.004"
     shaper:pathType="interior"
     stroke="rgb(0,0,0)"
     transform="matrix(1,0,0,-1,-0,5.1799998)"
     vector-effect="non-scaling-stroke"
     id="path6"
     style="stroke:#ff0000;stroke-opacity:1" /><path
     d="M9.9899999,4.39 L9.9899999,0.4 11.5237935,0.4 11.5237935,4.39 9.9899999,4.39z"
     fill="rgb(255,255,255)"
     shaper:cutDepth="0.004"
     shaper:pathType="interior"
     stroke="rgb(0,0,0)"
     transform="matrix(1,0,0,-1,-0,5.1799998)"
     vector-effect="non-scaling-stroke"
     id="path8"
     style="stroke:#ed0000;stroke-opacity:1" /><path
     d="M4.0111771,4.39 L4.0111771,3.44 2.1899999,3.44 2.1899999,0.4 5.4899999,0.4 5.4899999,4.39 4.0111771,4.39z"
     fill="rgb(255,255,255)"
     shaper:cutDepth="0.004"
     shaper:pathType="interior"
     stroke="rgb(0,0,0)"
     transform="matrix(1,0,0,-1,-0,5.1799998)"
     vector-effect="non-scaling-stroke"
     id="path10"
     style="stroke:#ff0000;stroke-opacity:1" /><path
     d="M12.6149999,4.39 a0.125,0.125 0 1,1 0.25,0 a0.125,0.125 0 1,1 -0.25,0z"
     fill="rgb(255,255,255)"
     shaper:cutDepth="0.004"
     shaper:pathType="interior"
     stroke="rgb(0,0,0)"
     transform="matrix(1,0,0,-1,-0,5.1799998)"
     vector-effect="non-scaling-stroke"
     id="path12"
     style="stroke:#ff0000;stroke-opacity:1" /><path
     d="M2.7149998,4.39 a0.125,0.125 0 1,1 0.25,0 a0.125,0.125 0 1,1 -0.25,0z"
     fill="rgb(255,255,255)"
     shaper:cutDepth="0.004"
     shaper:pathType="interior"
     stroke="rgb(0,0,0)"
     transform="matrix(1,0,0,-1,-0,5.1799998)"
     vector-effect="non-scaling-stroke"
     id="path14"
     style="stroke:#ff0000;stroke-opacity:1" /></svg>